<svg width="52" height="52" viewBox="0 0 52 52" fill="none" xmlns="http://www.w3.org/2000/svg">
<circle cx="26" cy="26" r="26" fill="#FFFF3E"/>
<path d="M34.5546 15.5996H18.7446C16.9596 15.5996 15.5996 16.9596 15.5996 18.7446V34.5546C15.5996 36.3396 16.9596 37.6996 18.7446 37.6996H34.5546C36.3396 37.6996 37.6996 36.3396 37.6996 34.5546V18.7446C37.6996 16.9596 36.3396 15.5996 34.5546 15.5996ZM26.6496 33.2796C30.3046 33.2796 33.2796 30.3896 33.2796 26.9046C33.2796 26.3096 33.1946 25.6296 33.0246 25.1196H34.8946V34.1296C34.8946 34.5546 34.5546 34.9796 34.0446 34.9796H19.2546C18.8296 34.9796 18.4046 34.6396 18.4046 34.1296V25.0346H20.3596C20.1896 25.6296 20.1046 26.2246 20.1046 26.8196C20.0196 30.3896 22.9946 33.2796 26.6496 33.2796ZM26.6496 30.7296C24.2696 30.7296 22.3996 28.8596 22.3996 26.5646C22.3996 24.2696 24.2696 22.3996 26.6496 22.3996C29.0296 22.3996 30.8996 24.2696 30.8996 26.5646C30.8996 28.9446 29.0296 30.7296 26.6496 30.7296ZM34.8096 21.6346C34.8096 22.1446 34.3846 22.5696 33.8746 22.5696H31.4946C30.9846 22.5696 30.5596 22.1446 30.5596 21.6346V19.3396C30.5596 18.8296 30.9846 18.4046 31.4946 18.4046H33.8746C34.3846 18.4046 34.8096 18.8296 34.8096 19.3396V21.6346Z" fill="#1E1E1E"/>
</svg>
