<svg width="42" height="42" viewBox="0 0 42 42" fill="none" xmlns="http://www.w3.org/2000/svg">
<path d="M21 18.375H23.625V21H21V18.375ZM26.25 18.375H28.875V21H26.25V18.375ZM31.5 18.375H34.125V21H31.5V18.375ZM21 23.625H23.625V26.25H21V23.625ZM26.25 23.625H28.875V26.25H26.25V23.625ZM31.5 23.625H34.125V26.25H31.5V23.625ZM21 28.875H23.625V31.5H21V28.875ZM26.25 28.875H28.875V31.5H26.25V28.875ZM31.5 28.875H34.125V31.5H31.5V28.875ZM21 13.125H34.125V15.75H21V13.125Z" fill="#FFFF3E"/>
<path d="M36.75 7.875H18.375V6.5625C18.3743 5.86652 18.0975 5.19924 17.6054 4.70711C17.1133 4.21498 16.446 3.93819 15.75 3.9375H10.5C9.80402 3.93819 9.13674 4.21498 8.64461 4.70711C8.15248 5.19924 7.87569 5.86652 7.875 6.5625V7.875H5.25C4.55402 7.87569 3.88674 8.15248 3.39461 8.64461C2.90248 9.13674 2.62569 9.80402 2.625 10.5V34.125C2.62569 34.821 2.90248 35.4883 3.39461 35.9804C3.88674 36.4725 4.55402 36.7493 5.25 36.75H36.75C37.446 36.7493 38.1133 36.4725 38.6054 35.9804C39.0975 35.4883 39.3743 34.821 39.375 34.125V10.5C39.3743 9.80402 39.0975 9.13674 38.6054 8.64461C38.1133 8.15248 37.446 7.87569 36.75 7.875ZM10.5 6.5625H15.75V28.875H10.5V6.5625ZM36.75 34.125H5.25V10.5H7.875V28.875C7.87569 29.571 8.15248 30.2383 8.64461 30.7304C9.13674 31.2225 9.80402 31.4993 10.5 31.5H15.75C16.446 31.4993 17.1133 31.2225 17.6054 30.7304C18.0975 30.2383 18.3743 29.571 18.375 28.875V10.5H36.75V34.125Z" fill="#FFFF3E"/>
</svg>
