<svg width="52" height="52" viewBox="0 0 52 52" fill="none" xmlns="http://www.w3.org/2000/svg">
<circle cx="26" cy="26" r="26" fill="#FFFF3E"/>
<path d="M38.7476 32.6495C38.7476 32.5416 38.6396 32.5416 38.6396 32.4337C38.2079 31.5702 37.2366 30.491 35.9414 29.3037C35.2938 28.7641 34.97 28.3323 34.7542 28.1165C34.4304 27.6848 34.4304 27.361 34.5383 26.9293C34.6463 26.6055 35.078 26.0658 35.8335 25.0944C36.2652 24.5548 36.481 24.231 36.8048 23.9072C38.4238 21.7486 39.1793 20.3455 38.9634 19.698L38.8555 19.59C38.7476 19.4821 38.6396 19.3742 38.4238 19.3742C38.2079 19.2663 37.8841 19.2663 37.5603 19.3742H33.459C33.3511 19.3742 33.3511 19.3742 33.1352 19.3742C33.0273 19.3742 32.9194 19.3742 32.9194 19.3742H32.8114H32.7035L32.5956 19.4821C32.4876 19.59 32.4876 19.59 32.4876 19.698C32.0559 20.8852 31.5163 21.8566 30.9766 22.9359C30.6528 23.4755 30.329 24.0152 30.0053 24.4469C29.6815 24.8786 29.4656 25.2024 29.2497 25.4182C29.0339 25.6341 28.818 25.742 28.7101 25.9579C28.6022 26.0658 28.3863 26.1738 28.3863 26.0658C28.2784 26.0658 28.1704 26.0658 28.1704 25.9579C28.0625 25.85 27.9546 25.742 27.8467 25.6341C27.7387 25.5262 27.7387 25.3103 27.6308 25.0944C27.6308 24.8786 27.6308 24.6627 27.6308 24.5548C27.6308 24.4469 27.6308 24.1231 27.6308 23.9072C27.6308 23.5834 27.6308 23.3676 27.6308 23.2596C27.6308 22.9359 27.6308 22.5041 27.6308 22.0724C27.6308 21.6407 27.6308 21.3169 27.6308 21.1011C27.6308 20.8852 27.6308 20.5614 27.6308 20.3455C27.6308 20.0218 27.6308 19.8059 27.6308 19.698C27.6308 19.59 27.5229 19.3742 27.5229 19.2662C27.415 19.1583 27.307 19.0504 27.1991 18.9425C27.0911 18.8345 26.8753 18.8345 26.7674 18.7266C26.2277 18.6187 25.5801 18.5107 24.8246 18.5107C23.0978 18.5107 21.9105 18.6187 21.4788 18.8345C21.263 18.9425 21.0471 19.0504 20.9392 19.2662C20.7233 19.4821 20.7233 19.59 20.8312 19.59C21.3709 19.698 21.8026 19.9138 22.0185 20.2376L22.1264 20.4535C22.2343 20.5614 22.2343 20.7773 22.3422 21.1011C22.4502 21.4248 22.4502 21.7486 22.4502 22.1803C22.4502 22.8279 22.4502 23.4755 22.4502 23.9072C22.4502 24.4469 22.3422 24.7707 22.3422 25.0944C22.3422 25.4182 22.2343 25.6341 22.1264 25.742C22.0185 25.9579 22.0185 26.0658 21.9105 26.0658C21.9105 26.0658 21.9105 26.1737 21.8026 26.1737C21.6947 26.1737 21.5867 26.2817 21.3709 26.2817C21.2629 26.2817 21.0471 26.1738 20.9392 26.0658C20.7233 25.9579 20.5074 25.742 20.3995 25.5262C20.1837 25.3103 19.9678 24.9865 19.7519 24.5548C19.5361 24.1231 19.2123 23.6914 18.9964 23.0438L18.7806 22.6121C18.6726 22.3962 18.4568 21.9645 18.2409 21.4248C18.0251 20.8852 17.8092 20.4535 17.5933 19.9138C17.4854 19.698 17.3775 19.59 17.2696 19.4821H17.1616C17.1616 19.4821 17.0537 19.3742 16.9457 19.3742C16.8378 19.3742 16.7299 19.2662 16.622 19.2662H12.7365C12.3048 19.2662 12.0889 19.3742 11.981 19.4821L11.873 19.59C11.873 19.59 11.873 19.698 11.873 19.8059C11.873 19.9138 11.8731 20.0217 11.981 20.2376C12.5206 21.5328 13.1682 22.8279 13.8158 24.1231C14.4634 25.3103 15.111 26.3896 15.5427 27.1451C16.0823 27.9006 16.514 28.6561 17.0537 29.3037C17.5933 29.9513 17.9171 30.383 18.025 30.5989C18.2409 30.8147 18.3488 30.9227 18.4568 31.0306L18.7806 31.3544C18.9964 31.5702 19.3202 31.894 19.7519 32.2178C20.1836 32.5416 20.7233 32.8654 21.2629 33.1892C21.8026 33.513 22.4502 33.7288 23.0978 33.9447C23.8533 34.1606 24.5008 34.2685 25.1484 34.1606H26.7674C27.0912 34.1606 27.307 34.0526 27.5229 33.8368L27.6308 33.7288C27.6308 33.6209 27.7387 33.6209 27.7387 33.513C27.7387 33.405 27.7387 33.2971 27.7387 33.0813C27.7387 32.6495 27.7387 32.3258 27.8467 32.002C27.9546 31.6782 27.9546 31.4623 28.0625 31.2465C28.1705 31.0306 28.2784 30.9227 28.3863 30.8147C28.4942 30.7068 28.6022 30.5989 28.6022 30.5989H28.7101C28.9259 30.4909 29.2498 30.5989 29.4656 30.8147C29.7894 31.0306 30.1132 31.3544 30.329 31.6782C30.5449 32.002 30.8687 32.3258 31.3004 32.7575C31.7321 33.1892 32.0559 33.513 32.2718 33.6209L32.5956 33.8368C32.8114 33.9447 33.0273 34.0526 33.3511 34.1606C33.6749 34.2685 33.8907 34.2685 34.1066 34.2685L37.7762 34.1606C38.1 34.1606 38.4238 34.0526 38.6396 33.9447C38.8555 33.8368 38.9634 33.7288 38.9634 33.513C38.9634 33.405 38.9634 33.1892 38.9634 33.0813C38.7476 32.8654 38.7476 32.7575 38.7476 32.6495Z" fill="#1E1E1E"/>
</svg>
