<svg width="52" height="52" viewBox="0 0 52 52" fill="none" xmlns="http://www.w3.org/2000/svg">
<circle cx="26" cy="26" r="26" fill="#FFFF3E"/>
<path d="M12.1551 26.4859L18.1327 28.7148L20.4629 36.212C20.5642 36.7186 21.1721 36.8199 21.5773 36.516L24.9207 33.7805C25.2246 33.4766 25.7312 33.4766 26.1364 33.7805L32.1139 38.137C32.5192 38.4409 33.1271 38.2383 33.2284 37.7317L37.6862 16.4559C37.7875 15.9493 37.2809 15.4427 36.7744 15.6454L12.1551 25.1688C11.5472 25.3715 11.5472 26.2833 12.1551 26.4859ZM20.1589 27.6004L31.9113 20.4071C32.1139 20.3058 32.3166 20.6097 32.1139 20.711L22.4891 29.728C22.1852 30.0319 21.8812 30.4371 21.8812 30.9437L21.5773 33.3752C21.5773 33.6792 21.0707 33.7805 20.9694 33.3752L19.7537 28.9174C19.4497 28.4109 19.6524 27.803 20.1589 27.6004Z" fill="#1E1E1E"/>
</svg>
